#!OML:ASF E:/inclinewalkrobotboard/Project1/Captureday1/Session1/subject1.ASF
:FULLY-SPECIFIED
:DEGREES
163
root 0 0 0 15.916727057893757 42.272928514173046 -0.591276193227797
lowerback -10.864891781533967 -4.504154767340582 -4.491146477877822
upperback -11.719485247581039 -5.596802779757293 8.925745670683881
thorax -5.424753120412262 -2.110296693418335 12.166787776952166
lowerneck -3.002925116075957 -9.82131005171555 -8.461011187680278
upperneck 32.7850810969768 -12.315298514746996 0.15110172641993191
head 11.906604446139157 -6.3774103382014315 -0.1505167531496625
rclavicle -4.58264009362602E-15 3.964456727609312E-15
rhumerus 162.71096337356815 5.755609253455095 -194.181675336973
rradius 16.925623238482764
rwrist 82.90972922980299
rhand -17.116610811257146 7.8835207914211605
rfingers 7.125020000000012
rthumb 9.077077760952415 -22.019802940526635
lclavicle 1.6296030580841122E-15 -4.827943270818779E-15
lhumerus 85.30593528464597 32.70699807307884 16.550691192140228
lradius 50.173668110994875
lwrist -17.38981376992823
lhand -8.255630989968635 11.806553994075548
lfingers 7.125019999999987
lthumb 17.620014387993592 40.70957386028442
rfemur 157.61406223636814 -213.197438294567 -185.1785664466339
rtibia 62.27991424557527
rfoot -54.509356503798664 -23.98401255926929
rtoes 61.026428624991
lfemur -88.62055267177162 22.775748509816488 -52.007096242035516
ltibia 75.79271034927235
lfoot -15.815107364859374 32.7250718357687
ltoes 10.387447146506494
164
root 0 0 0 15.885991454767938 42.29193337010372 -0.5756796813407998
lowerback -10.850435641955595 -4.505482021025536 -4.4936871841559745
upperback -11.712287338867208 -5.598217402634893 8.92410336884194
thorax -5.4255769648805305 -2.1104159133497715 12.166196336642557
lowerneck -3.0023838748452025 -9.821078706038788 -8.459309443493567
upperneck 32.7854973259648 -12.313794298313331 0.14661413611423413
head 11.906400693741755 -6.377121583527964 -0.1521340628013479
rclavicle -4.567015160733275E-15 3.996584493177316E-15
rhumerus 162.63164978962746 5.793290311382702 -194.23935421625342
rradius 16.900424248680643
rwrist 82.9400849452746
rhand -17.11605867079712 7.8911355287436535
rfingers 7.125020000000012
rthumb 9.077584217475852 -22.010986223377877
lclavicle 1.6972734841120852E-15 -4.76207032727576E-15
lhumerus 85.25687122346112 32.702417889306446 16.54305146032612
lradius 50.127283893105414
lwrist -17.424068527290473
lhand -8.300524740704855 11.827664582398633
lfingers 7.125019999999987
lthumb 17.576876547476434 40.7371017036561
rfemur 157.55198770404613 -213.14885105088877 -185.13741817065926
rtibia 62.15002158662132
rfoot -54.82201240655101 -23.86071936617116
rtoes 61.00038825520916
lfemur -88.64549202734918 22.77149467235339 -52.065081342703095
ltibia 75.77441741842354
lfoot -15.625469078899208 32.734784338164104
ltoes 10.334933019488123
165
root 0 0 0 15.861183742597762 42.30031237478906 -0.5623612305194357
lowerback -10.839282243318888 -4.506559992258087 -4.496026232845034
upperback -11.70682283935078 -5.599381307206488 8.922479560783938
thorax -5.426435658354611 -2.1104537332877094 12.165568742520467
lowerneck -3.0021338033284284 -9.820584219771035 -8.457749478783942
upperneck 32.78565682031926 -12.312389847459828 0.14385537715200813
head 11.906192291627137 -6.376722730813788 -0.15316512923853365
rclavicle -4.5549347667917965E-15 4.0188614780146774E-15
rhumerus 162.54416328635548 5.830012621810862 -194.29673866279805
rradius 16.873057790506756
rwrist 82.9676976080601
rhand -17.11600420210678 7.89907072341277
rfingers 7.125020000000012
rthumb 9.077664461590283 -22.001972286179853
lclavicle 1.7478744055468285E-15 -4.716683717992314E-15
lhumerus 85.2237490656406 32.70229929341934 16.529318771713342
lradius 50.08573653093798
lwrist -17.454092628075767
lhand -8.33101925746812 11.848866550698856
lfingers 7.125019999999987
lthumb 17.5475640641903 40.762940601820254
rfemur 157.47802742121706 -213.08729599824846 -185.089190009679
rtibia 62.00917344612698
rfoot -55.14508416708671 -23.737576975652253
rtoes 60.981986691961794
lfemur -88.66918422690676 22.771154752863836 -52.11840006534948
ltibia 75.75453736276884
lfoot -15.429666128114116 32.740887030368526
ltoes 10.280721061501568
166
root 0 0 0 15.814842668658352 42.3274389418048 -0.5362026630583365
lowerback -10.816407082744671 -4.507033425443305 -4.501209474789316
upperback -11.69479577904818 -5.599429365950649 8.918216791465653
thorax -5.427333210606305 -2.1094076587043746 12.163409852371945
lowerneck -3.0023547773966683 -9.819533552427872 -8.453231368836551
upperneck 32.78689951340114 -12.309154379276741 0.1348813704765246
head 11.905989480643468 -6.375842569301952 -0.15635210551986845
rclavicle -4.531523704947666E-15 4.0453051675255425E-15
rhumerus 162.38908926860628 5.863288086600786 -194.43187000618266
rradius 16.748588916757814
rwrist 83.1211971761092
rhand -17.11198825129802 7.8952749909905355
rfingers 7.125020000000012
rthumb 9.081211394473165 -22.00555823824838
lclavicle 1.7796455242676882E-15 -4.630084211346619E-15
lhumerus 85.32234645890448 32.80540734185756 16.538266852018698
lradius 49.88708667430355
lwrist -17.52206110901856
lhand -8.425028563598683 11.913725995277131
lfingers 7.125019999999986
lthumb 17.45687138885838 40.84616896029597
rfemur 157.16968587179468 -212.83276730382732 -184.92661620359658
rtibia 61.69495977917344
rfoot -55.662371469914675 -23.646287015233067
rtoes 61.114816974810665
lfemur -88.672192852098 22.778319812880166 -52.17670667435931
ltibia 75.75232004511864
lfoot -15.082463922129733 32.69967620261703
ltoes 10.144104960373998
167
root 0 0 0 15.775506786741285 42.35815968410769 -0.5152154271902134
lowerback -10.796730722534793 -4.507855537372842 -4.5047319330539555
upperback -11.685295538852737 -5.599988367458652 8.915286465176422
thorax -5.428874873830285 -2.108836405379522 12.161753031983672
lowerneck -3.0017991981867853 -9.819306195796878 -8.45038170569683
upperneck 32.786644630573925 -12.306981529551583 0.12713850424225015
head 11.905305674356171 -6.375477670425956 -0.15910961133999035
rclavicle -4.6796131808181085E-15 4.067332612046826E-15
rhumerus 162.37557931538583 5.886097429299415 -194.43603264336645
rradius 16.74245269553213
rwrist 83.20301469859541
rhand -17.121511784723744 7.909070635863937
rfingers 7.125020000000012
rthumb 9.07169045663947 -21.99257472682257
lclavicle 1.6989201701324E-15 -4.550344165936271E-15
lhumerus 85.30302034547763 32.83205552749892 16.571229785928764
lradius 49.79519527657598
lwrist -17.551520128442256
lhand -8.510265559700457 11.930074002740996
lfingers 7.125019999999986
lthumb 17.375095082087153 40.87525445264553
rfemur 157.21432312565634 -212.83432397363782 -184.92592854767594
rtibia 61.6463062244282
rfoot -55.799936675942675 -23.4904494401474
rtoes 61.04461448540056
lfemur -88.67971422102457 22.749228211221194 -52.255883853684395
ltibia 75.73543563681672
lfoot -14.867940253367237 32.70199791769129
ltoes 10.046142262544123
168
root 0 0 0 15.749469189084103 42.37007491895834 -0.5022207344467997
lowerback -10.785578600114622 -4.509951395923391 -4.506964431553064
upperback -11.680015166575055 -5.602524826657399 8.914676045497535
thorax -5.429719835822658 -2.109609241550997 12.162246917961905
lowerneck -3.0006505122663754 -9.818992288524168 -8.449485864229672
upperneck 32.78767491658057 -12.305761223986776 0.12490563441268732
head 11.90539490956044 -6.375189301840426 -0.1599556941999909
rclavicle -4.589828327880615E-15 4.098011371497868E-15
rhumerus 162.26873867577854 5.923172406648291 -194.48739366106074
rradius 16.726371789305354
rwrist 83.19270438924302
rhand -17.11796376477022 7.916716683334505
rfingers 7.125020000000012
rthumb 9.07528054222541 -21.983030004428628
lclavicle 1.843396791067659E-15 -4.510218325952102E-15
lhumerus 85.22358226690586 32.78098358223846 16.526553923469756
lradius 49.807302046528825
lwrist -17.5779834066451
lhand -8.521046279216655 11.949572578321845
lfingers 7.125019999999986
lthumb 17.36489943859395 40.89459366123673
rfemur 157.17953601163902 -212.82398438680121 -184.8982119015957
rtibia 61.53295186402069
rfoot -56.162651356699406 -23.343347555828142
rtoes 60.983627451796195
lfemur -88.70830257452893 22.74912402995966 -52.32946060761338
ltibia 75.70900758628747
lfoot -14.673201096052999 32.726203133047555
ltoes 10.00117998957864
169
root 0 0 0 15.724506889591076 42.37500146836881 -0.48883621945282485
lowerback -10.774901613865552 -4.51126504097371 -4.509393615218616
upperback -11.67472376958793 -5.604051604638949 8.913153045969814
thorax -5.430520324733946 -2.1098407533032013 12.161819849879159
lowerneck -3.000586687114713 -9.818469510716715 -8.448220487351257
upperneck 32.78733394637013 -12.304439576679595 0.12303736372702812
head 11.90507334182308 -6.3747790455095785 -0.16068048427765103
rclavicle -4.565660397253709E-15 4.1249159548573305E-15
rhumerus 162.18885990863075 5.967073789071691 -194.5501339504582
rradius 16.714584993501937
rwrist 83.18722712396652
rhand -17.117852843872537 7.926830793489719
rfingers 7.125020000000012
rthumb 9.075523363039665 -21.971353622243274
lclavicle 1.9051972904048517E-15 -4.468189320406842E-15
lhumerus 85.17846665835084 32.77165028190008 16.514859153551964
lradius 49.78504289393876
lwrist -17.59939946308081
lhand -8.536827721326636 11.965665560638154
lfingers 7.125019999999986
lthumb 17.34972102408146 40.91289932622978
rfemur 157.13912298634375 -212.79207143477362 -184.86738561986962
rtibia 61.41124831191475
rfoot -56.475892997996944 -23.21691908913195
rtoes 60.935774259723075
lfemur -88.73262856656058 22.748676458173044 -52.38444999773235
ltibia 75.6853150029914
lfoot -14.479357241171046 32.73580071939241
ltoes 9.949740415771256
170
root 0 0 0 15.700634433326321 42.37872664373339 -0.47562128912692536
lowerback -10.764581790043692 -4.5123167249774845 -4.511907159463346
upperback -11.669564491302982 -5.605237173388231 8.91140930895706
thorax -5.431294808047956 -2.1098936823009184 12.16118981947313
lowerneck -3.000707019884471 -9.817854578739182 -8.44676330028122
upperneck 32.786939560734254 -12.303039867468046 0.12108633628066467
head 11.904735495575794 -6.374316995938828 -0.16143340410642115
rclavicle -4.551257073224603E-15 4.1501291259771064E-15
rhumerus 162.11603961479642 6.0051791829501795 -194.60736188188582
rradius 16.700085960663692
rwrist 83.19234192662626
rhand -17.118616056612364 7.935965347109466
rfingers 7.125020000000012
rthumb 9.074874638724229 -21.961074926396048
lclavicle 1.955412471554043E-15 -4.424537239966462E-15
lhumerus 85.14664390000297 32.77222878880902 16.50967340625032
lradius 49.75351510271274
lwrist -17.619779338656798
lhand -8.555546151346386 11.982288602304113
lfingers 7.125019999999986
lthumb 17.331705006092914 40.93252608847103
rfemur 157.09178734160577 -212.75143749381783 -184.83331051762508
rtibia 61.284615699500364
rfoot -56.78202500459737 -23.093912431202906
rtoes 60.89830923806856
lfemur -88.75434071461902 22.74809996796843 -52.43409825971903
ltibia 75.66413161584585
lfoot -14.292491151098343 32.74118177351365
ltoes 9.895466456504248
